<svg width="38" height="39" viewBox="0 0 38 39" fill="none" xmlns="http://www.w3.org/2000/svg">
<g clip-path="url(#clip0_201_2759)">
<path d="M35.8971 0.526855C36.4744 0.526855 36.9692 0.733019 37.3815 1.14535C37.7938 1.55767 38 2.05246 38 2.62972V36.424C38 37.0012 37.7938 37.496 37.3815 37.9084C36.9692 38.3207 36.4744 38.5269 35.8971 38.5269H26.224V23.8068H31.1471L31.8893 18.0672H26.224V14.4058C26.224 13.4822 26.4178 12.7894 26.8053 12.3276C27.1929 11.8658 27.9475 11.6349 29.069 11.6349L32.0872 11.6102V6.4891C31.0482 6.34066 29.5803 6.26644 27.6836 6.26644C25.4405 6.26644 23.6469 6.92616 22.3027 8.24561C20.9586 9.56505 20.2865 11.4288 20.2865 13.8368V18.0672H15.3385V23.8068H20.2865V38.5269H2.10286C1.52561 38.5269 1.03082 38.3207 0.61849 37.9084C0.206163 37.496 0 37.0012 0 36.424V2.62972C0 2.05246 0.206163 1.55767 0.61849 1.14535C1.03082 0.733019 1.52561 0.526855 2.10286 0.526855H35.8971Z" fill="white"/>
</g>
<defs>
<clipPath id="clip0_201_2759">
<rect y="0.526855" width="38" height="38" rx="4" fill="white"/>
</clipPath>
</defs>
</svg>
