<svg width="39" height="38" viewBox="0 0 39 38" fill="none" xmlns="http://www.w3.org/2000/svg">
<path d="M19.4949 12.664C16.0061 12.664 13.159 15.5111 13.159 19C13.159 22.4889 16.0061 25.336 19.4949 25.336C22.9837 25.336 25.8308 22.4889 25.8308 19C25.8308 15.5111 22.9837 12.664 19.4949 12.664ZM38.4979 19C38.4979 16.3762 38.5216 13.7762 38.3743 11.1572C38.227 8.11515 37.533 5.41532 35.3085 3.19082C33.0793 0.961562 30.3843 0.272347 27.3423 0.124997C24.7186 -0.0223523 22.1186 0.00141381 19.4996 0.00141381C16.8759 0.00141381 14.276 -0.0223523 11.657 0.124997C8.61499 0.272347 5.91522 0.966315 3.69076 3.19082C1.46154 5.42007 0.772342 8.11515 0.624995 11.1572C0.477648 13.781 0.501414 16.381 0.501414 19C0.501414 21.619 0.477648 24.2238 0.624995 26.8428C0.772342 29.8849 1.4663 32.5847 3.69076 34.8092C5.91997 37.0384 8.61499 37.7277 11.657 37.875C14.2807 38.0224 16.8807 37.9986 19.4996 37.9986C22.1234 37.9986 24.7233 38.0224 27.3423 37.875C30.3843 37.7277 33.0841 37.0337 35.3085 34.8092C37.5377 32.5799 38.227 29.8849 38.3743 26.8428C38.5264 24.2238 38.4979 21.6238 38.4979 19V19ZM19.4949 28.7488C14.1001 28.7488 9.74624 24.3949 9.74624 19C9.74624 13.6051 14.1001 9.25116 19.4949 9.25116C24.8897 9.25116 29.2435 13.6051 29.2435 19C29.2435 24.3949 24.8897 28.7488 19.4949 28.7488ZM29.6428 11.1287C28.3832 11.1287 27.3661 10.1115 27.3661 8.85189C27.3661 7.59229 28.3832 6.57511 29.6428 6.57511C30.9024 6.57511 31.9196 7.59229 31.9196 8.85189C31.9199 9.15099 31.8613 9.44722 31.747 9.72363C31.6327 10 31.465 10.2512 31.2535 10.4627C31.0421 10.6742 30.7909 10.8419 30.5145 10.9561C30.2381 11.0704 29.9419 11.1291 29.6428 11.1287V11.1287Z" fill="#233976"/>
</svg>
