<svg width="38" height="39" viewBox="0 0 38 39" fill="none" xmlns="http://www.w3.org/2000/svg">
<g clip-path="url(#clip0_201_2761)">
<path d="M18.9949 13.1908C15.5061 13.1908 12.659 16.038 12.659 19.5269C12.659 23.0157 15.5061 25.8629 18.9949 25.8629C22.4837 25.8629 25.3308 23.0157 25.3308 19.5269C25.3308 16.038 22.4837 13.1908 18.9949 13.1908ZM37.9979 19.5269C37.9979 16.9031 38.0216 14.3031 37.8743 11.6841C37.727 8.642 37.033 5.94218 34.8085 3.71767C32.5793 1.48842 29.8843 0.799202 26.8423 0.651853C24.2186 0.504503 21.6186 0.528269 18.9996 0.528269C16.3759 0.528269 13.776 0.504503 11.157 0.651853C8.115 0.799202 5.41522 1.49317 3.19076 3.71767C0.961545 5.94693 0.272342 8.642 0.124995 11.6841C-0.0223519 14.3078 0.00141379 16.9078 0.00141379 19.5269C0.00141379 22.1459 -0.0223519 24.7506 0.124995 27.3697C0.272342 30.4117 0.966298 33.1115 3.19076 35.336C5.41997 37.5653 8.115 38.2545 11.157 38.4019C13.7807 38.5492 16.3807 38.5254 18.9996 38.5254C21.6234 38.5254 24.2233 38.5492 26.8423 38.4019C29.8843 38.2545 32.5841 37.5605 34.8085 35.336C37.0378 33.1068 37.727 30.4117 37.8743 27.3697C38.0264 24.7506 37.9979 22.1506 37.9979 19.5269ZM18.9949 29.2757C13.6001 29.2757 9.24624 24.9218 9.24624 19.5269C9.24624 14.132 13.6001 9.77802 18.9949 9.77802C24.3897 9.77802 28.7435 14.132 28.7435 19.5269C28.7435 24.9218 24.3897 29.2757 18.9949 29.2757ZM29.1428 11.6555C27.8832 11.6555 26.8661 10.6383 26.8661 9.37875C26.8661 8.11915 27.8832 7.10196 29.1428 7.10196C30.4024 7.10196 31.4196 8.11915 31.4196 9.37875C31.4199 9.67785 31.3613 9.97408 31.247 10.2505C31.1327 10.5269 30.965 10.778 30.7535 10.9895C30.5421 11.201 30.2909 11.3687 30.0145 11.483C29.7381 11.5973 29.4419 11.6559 29.1428 11.6555Z" fill="white"/>
</g>
<defs>
<clipPath id="clip0_201_2761">
<rect width="38" height="38" fill="white" transform="translate(0 0.526855)"/>
</clipPath>
</defs>
</svg>
