<svg width="82" height="85" viewBox="0 0 82 85" fill="none" xmlns="http://www.w3.org/2000/svg">
<path d="M39.8624 82.0966C18.3843 82.0966 0.912109 63.6843 0.912109 41.0506C0.912109 18.417 18.3843 0 39.8624 0C61.3405 0 78.8171 18.417 78.8171 41.0506C78.8171 63.6843 61.3405 82.0966 39.8624 82.0966Z" fill="white"/>
<path d="M42.1378 84.4945C20.6597 84.4945 3.1875 66.0823 3.1875 43.4486C3.1875 20.8149 20.6597 2.39795 42.1378 2.39795C63.6159 2.39795 81.0925 20.8149 81.0925 43.4486C81.0925 66.0823 63.6159 84.4945 42.1378 84.4945Z" fill="#FCDA00"/>
<path d="M11.6776 45.4322C11.6776 26.7278 25.9353 11.5665 43.5237 11.5665C54.2896 11.5665 63.8081 17.2485 69.5755 25.9505C63.9556 15.6466 53.4714 8.71606 41.4671 8.71606C23.5344 8.71606 8.99512 24.1743 8.99512 43.2508C8.99512 56.0612 15.5539 67.2461 25.3004 73.2061C17.0695 67.0859 11.6821 56.9328 11.6821 45.4369L11.6776 45.4322Z" fill="white"/>
<path d="M74.5427 39.9622C74.5739 40.5746 74.5874 41.1871 74.5874 41.809C74.5874 59.8915 58.4162 77.14 41.5476 77.14C41.324 77.14 41.1005 77.1353 40.877 77.1306C42.5312 77.4415 43.9574 77.4604 45.6966 77.4604C60.7455 77.4604 75.173 62.7042 75.173 46.3226C75.173 44.1412 74.954 42.0116 74.5382 39.9622H74.5427Z" fill="white"/>
<path d="M75.2534 30.9162C58.2552 30.9162 56.4981 25.8796 42.084 25.8796C27.6699 25.8796 25.9084 30.9162 8.91455 30.9162V55.3213C25.9084 55.3213 27.6699 60.3579 42.084 60.3579C56.4981 60.3579 58.2596 55.3213 75.2534 55.3213V30.9162Z" fill="white"/>
<path d="M42.084 27.2036C27.6654 27.2036 25.9084 32.2401 8.91455 32.2401V53.9975C25.9084 53.9975 27.6699 59.034 42.084 59.034C56.4981 59.034 58.2596 53.9975 75.2534 53.9975V32.2401C58.2552 32.2401 56.4981 27.2036 42.084 27.2036Z" fill="#BE0D30"/>
<path d="M24.5404 38.5912H27.4331V49.2484H24.1604C24.1604 49.2484 24.0442 49.2484 24.1425 49.173C24.3079 49.0505 24.536 48.7537 24.536 47.9999C24.536 47.9622 24.536 47.9151 24.536 47.8727V39.8303C24.536 39.0906 24.3079 38.7937 24.1425 38.6712C24.0442 38.5959 24.1559 38.5912 24.1559 38.5912H24.536M35.1632 38.299C36.4285 38.299 37.573 38.8738 38.3912 39.9245C39.196 40.9563 39.6431 42.3838 39.6431 43.9433C39.6431 45.3379 39.2094 46.7325 38.4583 47.7643C37.8726 48.5747 36.813 49.5452 35.123 49.5452C33.9695 49.5452 33.0753 49.1636 32.3913 48.3862L32.1633 48.1271V52.3061C32.2035 52.9139 32.4002 53.173 32.5522 53.2861C32.6551 53.3568 32.5791 53.3756 32.5388 53.3662C30.366 53.0976 29.2751 52.6359 29.2751 52.6359C29.2751 52.6124 29.2706 39.948 29.2706 39.948V39.8444C29.2706 39.1 29.0471 38.7937 28.8772 38.6712C28.7788 38.5959 28.8951 38.5912 28.8951 38.5912H31.9621V39.9245L32.1901 39.6795C32.9993 38.8032 34.0858 38.299 35.1677 38.299M35.8339 46.3933C36.3793 45.7007 36.6789 44.8197 36.6789 43.9103C36.6789 41.7007 35.8339 40.3862 34.4166 40.3862C32.1856 40.3862 32.1633 42.2614 32.1633 42.2755V46.7561L32.2035 46.7985C32.8026 47.3732 33.4241 47.4581 33.7817 47.4581C34.5552 47.4581 35.3108 47.0623 35.8294 46.398M53.1988 38.3038C56.1316 38.3038 58.5191 40.8197 58.5191 43.9151C58.5191 47.0105 56.1316 49.5311 53.1988 49.5311C50.2659 49.5311 47.8739 47.0152 47.8739 43.9151C47.8739 40.8149 50.2614 38.3038 53.1988 38.3038ZM53.1988 47.4439C54.616 47.4439 55.7695 45.8609 55.7695 43.9151C55.7695 41.9692 54.6205 40.3909 53.1988 40.3909C51.777 40.3909 50.628 41.974 50.628 43.9151C50.628 45.8562 51.7815 47.4439 53.1988 47.4439ZM23.3959 46.2802C23.3959 46.2802 23.3914 46.1577 23.3199 46.2614C23.2126 46.431 22.9488 46.6524 22.3095 46.6712C22.0412 46.6712 21.7372 46.676 21.4064 46.676H18.5718V35.623H15.8178H14.8968C14.8968 35.623 14.7805 35.6324 14.8789 35.703C15.0443 35.8208 15.2723 36.1271 15.2723 36.8762V48.0187C15.2723 48.7584 15.0443 49.0552 14.8789 49.1777C14.7805 49.2484 14.8968 49.2578 14.8968 49.2578H22.2692C22.998 49.2578 23.3959 48.7678 23.3959 47.8915V46.6712V46.2849M47.3374 46.6053C47.0647 46.8597 46.3762 47.4062 45.5401 47.4062C44.5476 47.4062 44.3509 46.6901 44.3509 45.5358V40.6595H45.2942C47.1049 40.6595 47.0737 38.6053 47.0737 38.6053H44.3509V35.59L41.4582 36.8102V38.6336H40.3718L40.3495 40.6642H41.4582V45.7525C41.4582 48.0658 42.7324 49.5641 44.7086 49.5641C47.2078 49.5641 47.4537 47.3167 47.4671 46.6618C47.4671 46.5535 47.4179 46.5393 47.3374 46.6147M69.2716 49.1966C69.1285 49.0929 68.9497 48.8668 68.896 48.3626V42.1624C68.896 40.8998 68.6188 39.9339 68.0689 39.2884C67.5234 38.643 66.7097 38.3226 65.6501 38.3226C64.1345 38.3226 63.1241 39.1047 62.5429 39.7596L62.3149 40.0187V38.6194H59.2434C59.2434 38.6194 59.1271 38.6288 59.2255 38.6995C59.3954 38.822 59.6189 39.1235 59.6189 39.8727V39.8632C59.6234 39.9009 59.6234 39.9386 59.6234 39.9716V43.3732V49.2767H62.8782C62.8782 49.2767 62.99 49.2672 62.8916 49.1966C62.7485 49.0929 62.5697 48.8621 62.5161 48.3485V43.8868C62.5161 41.9645 63.7366 40.6736 64.8767 40.6736C65.6904 40.6736 66.0078 41.173 66.0078 42.4639V47.9009C66.0078 47.9292 66.0123 47.948 66.0168 47.9763V49.2814H69.2626C69.2626 49.2814 69.3744 49.2814 69.2805 49.206M25.9577 34.5063C25.1395 34.5063 24.4689 35.2084 24.4689 36.0753C24.4689 36.9422 25.1395 37.6442 25.9577 37.6442C26.7759 37.6442 27.4465 36.9374 27.4465 36.0753C27.4465 35.2131 26.7803 34.5063 25.9577 34.5063Z" fill="white"/>
<path d="M77.95 34.3225C78.0573 34.2895 78.1422 34.233 78.2138 34.1576C78.3121 34.0539 78.3613 33.922 78.3613 33.776C78.3613 33.6676 78.3345 33.5687 78.2853 33.4791C78.2316 33.3896 78.169 33.3237 78.0886 33.2813C78.0126 33.2389 77.9053 33.2106 77.7711 33.2012C77.7264 33.2012 76.8188 33.2012 76.8188 33.2012V35.1847H77.2749V34.412C77.3688 34.412 77.4403 34.4356 77.4984 34.4827C77.5431 34.5157 77.6191 34.6052 77.7488 34.8502L77.9232 35.1847H78.5178L78.2495 34.7277C78.1422 34.5439 78.1154 34.5062 78.1065 34.4921C78.0483 34.4167 77.9902 34.3555 77.9545 34.3272L77.95 34.3225ZM77.9053 33.7995C77.9053 33.8419 77.8919 33.8796 77.8695 33.9126C77.8471 33.9456 77.8114 33.9691 77.7711 33.9833C77.7398 33.9927 77.6415 34.0068 77.3732 34.0068H77.2704V33.5969H77.3732C77.6504 33.5969 77.7398 33.6111 77.7711 33.6205C77.8159 33.6346 77.8471 33.6582 77.874 33.6912C77.8963 33.7241 77.9097 33.7571 77.9097 33.7995H77.9053Z" fill="#BE0D30"/>
<path d="M77.6458 32.2354C76.6264 32.2354 75.7993 33.107 75.7993 34.1812C75.7993 35.2554 76.6264 36.127 77.6458 36.127C78.6651 36.127 79.4923 35.2554 79.4923 34.1812C79.4923 33.107 78.6651 32.2354 77.6458 32.2354ZM77.6458 35.6464C76.8768 35.6464 76.2553 34.9915 76.2553 34.1812C76.2553 33.3708 76.8768 32.7159 77.6458 32.7159C78.4148 32.7159 79.0362 33.3708 79.0362 34.1812C79.0362 34.9915 78.4148 35.6464 77.6458 35.6464Z" fill="#BE0D30"/>
</svg>
