<svg width="120" height="122" viewBox="0 0 120 122" fill="none" xmlns="http://www.w3.org/2000/svg">
<path d="M55.7828 112.904C25.0654 112.904 0.0771484 87.5917 0.0771484 56.4754C0.0771484 25.3591 25.0654 0.0398407 55.7828 0.0398407C86.5001 0.0398407 111.495 25.3591 111.495 56.4754C111.495 87.5917 86.5001 112.904 55.7828 112.904Z" fill="white"/>
<path d="M63.7945 121.014C33.0771 121.014 8.08887 95.7011 8.08887 64.5848C8.08887 33.4685 33.0771 8.15573 63.7945 8.15573C94.5119 8.15573 119.506 33.475 119.506 64.5913C119.506 95.7076 94.5119 121.02 63.7945 121.02V121.014Z" fill="#233976"/>
<path d="M59.0376 116.201C28.3203 116.201 3.33203 90.8884 3.33203 59.7721C3.33203 28.6558 28.3203 3.33659 59.0376 3.33659C89.755 3.33659 114.75 28.6558 114.75 59.7721C114.75 90.8884 89.755 116.201 59.0376 116.201Z" fill="#F7DB17"/>
<path d="M15.4742 62.499C15.4742 36.7847 35.865 15.9412 61.0195 15.9412C76.4166 15.9412 90.0297 23.7526 98.2781 35.716C90.2407 21.5504 75.2465 12.0225 58.0782 12.0225C32.4314 12.0225 11.6377 33.2741 11.6377 59.5001C11.6377 77.1115 21.0179 92.4883 34.9571 100.682C23.1855 92.2681 15.4806 78.3098 15.4806 62.5055L15.4742 62.499Z" fill="white"/>
<path d="M105.382 54.979C105.427 55.8211 105.446 56.6631 105.446 57.5181C105.446 82.3774 82.3185 106.09 58.1935 106.09C57.8738 106.09 57.5541 106.084 57.2344 106.077C59.6002 106.505 61.6399 106.531 64.1272 106.531C85.6499 106.531 106.284 86.2443 106.284 63.7232C106.284 60.7243 105.97 57.7966 105.376 54.979H105.382Z" fill="white"/>
<path d="M106.398 42.5429C82.088 42.5429 79.5751 35.6188 58.9605 35.6188C38.3458 35.6188 35.8265 42.5429 11.5225 42.5429V76.0946C35.8265 76.0946 38.3458 83.0187 58.9605 83.0187C79.5751 83.0187 82.0944 76.0946 106.398 76.0946V42.5429Z" fill="white"/>
<path d="M58.9605 37.4389C38.3394 37.4389 35.8265 44.363 11.5225 44.363V74.2745C35.8265 74.2745 38.3458 81.1986 58.9605 81.1986C79.5751 81.1986 82.0944 74.2745 106.398 74.2745V44.363C82.088 44.363 79.5751 37.4389 58.9605 37.4389Z" fill="#BE0D30"/>
<path d="M33.8703 53.0942H38.0073V67.7455H33.3268C33.3268 67.7455 33.1606 67.7455 33.3012 67.6419C33.5378 67.4735 33.8639 67.0654 33.8639 66.0291C33.8639 65.9772 33.8639 65.9125 33.8639 65.8542V54.7977C33.8639 53.7808 33.5378 53.3727 33.3012 53.2043C33.1606 53.1007 33.3204 53.0942 33.3204 53.0942H33.8639M49.0628 52.6926C50.8723 52.6926 52.5092 53.4828 53.6793 54.9272C54.8303 56.3457 55.4697 58.3083 55.4697 60.4522C55.4697 62.3695 54.8494 64.2867 53.7752 65.7052C52.9376 66.8193 51.4222 68.1536 49.0052 68.1536C47.3555 68.1536 46.0767 67.6289 45.0984 66.5602L44.7723 66.204V71.9492C44.8298 72.7847 45.1112 73.141 45.3286 73.2964C45.4756 73.3936 45.3669 73.4195 45.3094 73.4066C42.2019 73.0374 40.6417 72.4026 40.6417 72.4026C40.6417 72.3702 40.6353 54.9596 40.6353 54.9596V54.8171C40.6353 53.7937 40.3156 53.3727 40.0726 53.2043C39.9319 53.1007 40.0982 53.0942 40.0982 53.0942H44.4846V54.9272L44.8107 54.5904C45.968 53.3856 47.5218 52.6926 49.0691 52.6926M50.0219 63.8204C50.802 62.8682 51.2304 61.657 51.2304 60.4069C51.2304 57.3691 50.0219 55.562 47.9949 55.562C44.8043 55.562 44.7723 58.1399 44.7723 58.1593V64.3191L44.8298 64.3774C45.6867 65.1676 46.5754 65.2842 47.087 65.2842C48.1931 65.2842 49.2738 64.7401 50.0155 63.8268M74.8567 52.6991C79.0512 52.6991 82.4657 56.1579 82.4657 60.4134C82.4657 64.6689 79.0512 68.1341 74.8567 68.1341C70.6621 68.1341 67.2412 64.6753 67.2412 60.4134C67.2412 56.1514 70.6557 52.6991 74.8567 52.6991ZM74.8567 65.2648C76.8836 65.2648 78.5333 63.0884 78.5333 60.4134C78.5333 57.7383 76.89 55.5685 74.8567 55.5685C72.8233 55.5685 71.18 57.7448 71.18 60.4134C71.18 63.082 72.8297 65.2648 74.8567 65.2648ZM32.2334 63.6649C32.2334 63.6649 32.227 63.4965 32.1247 63.639C31.9713 63.8722 31.594 64.1766 30.6796 64.2025C30.296 64.2025 29.8612 64.209 29.388 64.209H25.3342V49.0136H21.3954H20.0782C20.0782 49.0136 19.9119 49.0265 20.0526 49.1237C20.2892 49.2856 20.6153 49.7066 20.6153 50.7365V66.055C20.6153 67.0719 20.2892 67.48 20.0526 67.6484C19.9119 67.7455 20.0782 67.7585 20.0782 67.7585H30.6221C31.6643 67.7585 32.2334 67.0848 32.2334 65.8801V64.2025V63.6714M66.474 64.1118C66.0839 64.4616 65.0992 65.2129 63.9035 65.2129C62.484 65.2129 62.2027 64.2284 62.2027 62.6415V55.9376H63.5518C66.1415 55.9376 66.0967 53.1136 66.0967 53.1136H62.2027V48.9682L58.0657 50.6458V53.1525H56.5119L56.4799 55.9441H58.0657V62.9395C58.0657 66.1197 59.888 68.1795 62.7142 68.1795C66.2885 68.1795 66.6402 65.0899 66.6594 64.1896C66.6594 64.0406 66.589 64.0212 66.474 64.1248M97.8435 67.6743C97.6389 67.5318 97.3832 67.2209 97.3064 66.5278V58.0039C97.3064 56.268 96.91 54.9402 96.1235 54.0528C95.3434 53.1654 94.1797 52.725 92.6643 52.725C90.4967 52.725 89.0516 53.8002 88.2204 54.7005L87.8943 55.0568V53.133H83.5015C83.5015 53.133 83.3353 53.146 83.4759 53.2431C83.7189 53.4116 84.0386 53.8261 84.0386 54.856V54.843C84.045 54.8948 84.045 54.9466 84.045 54.992V59.6685V67.7844H88.6999C88.6999 67.7844 88.8598 67.7714 88.7191 67.6743C88.5145 67.5318 88.2587 67.2144 88.182 66.5084V60.3745C88.182 57.7318 89.9276 55.9571 91.5581 55.9571C92.7218 55.9571 93.1758 56.6437 93.1758 58.4184V65.893C93.1758 65.9319 93.1822 65.9578 93.1886 65.9967V67.7909H97.8307C97.8307 67.7909 97.9906 67.7909 97.8563 67.6872M35.8972 47.4785C34.7271 47.4785 33.768 48.4436 33.768 49.6354C33.768 50.8272 34.7271 51.7923 35.8972 51.7923C37.0674 51.7923 38.0265 50.8207 38.0265 49.6354C38.0265 48.45 37.0738 47.4785 35.8972 47.4785Z" fill="white"/>
<path d="M110.254 47.2259C110.408 47.1805 110.529 47.1028 110.632 46.9992C110.772 46.8567 110.843 46.6753 110.843 46.4745C110.843 46.3255 110.804 46.1895 110.734 46.0664C110.657 45.9434 110.568 45.8527 110.453 45.7944C110.344 45.7361 110.19 45.6972 109.999 45.6843C109.935 45.6843 108.637 45.6843 108.637 45.6843V48.4112H109.289V47.3489C109.423 47.3489 109.526 47.3813 109.609 47.4461C109.673 47.4914 109.781 47.6145 109.967 47.9513L110.216 48.4112H111.066L110.683 47.7829C110.529 47.5303 110.491 47.4785 110.478 47.459C110.395 47.3554 110.312 47.2712 110.261 47.2323L110.254 47.2259ZM110.19 46.5069C110.19 46.5652 110.171 46.617 110.139 46.6623C110.107 46.7077 110.056 46.7401 109.999 46.7595C109.954 46.7725 109.813 46.7919 109.43 46.7919H109.283V46.2284H109.43C109.826 46.2284 109.954 46.2478 109.999 46.2608C110.063 46.2802 110.107 46.3126 110.146 46.3579C110.178 46.4033 110.197 46.4486 110.197 46.5069H110.19Z" fill="#BE0D30"/>
<path d="M109.819 44.3565C108.362 44.3565 107.179 45.5548 107.179 47.0315C107.179 48.5083 108.362 49.7066 109.819 49.7066C111.277 49.7066 112.46 48.5083 112.46 47.0315C112.46 45.5548 111.277 44.3565 109.819 44.3565ZM109.819 49.0459C108.72 49.0459 107.831 48.1456 107.831 47.0315C107.831 45.9175 108.72 45.0171 109.819 45.0171C110.919 45.0171 111.808 45.9175 111.808 47.0315C111.808 48.1456 110.919 49.0459 109.819 49.0459Z" fill="#BE0D30"/>
</svg>
