<svg width="39" height="38" viewBox="0 0 39 38" fill="none" xmlns="http://www.w3.org/2000/svg">
<path d="M29.3626 0H9.63736C4.58897 0 0.5 4.08897 0.5 9.13736V28.8626C0.5 33.911 4.58897 38 9.63736 38H29.3626C34.411 38 38.5 33.911 38.5 28.8626V9.13736C38.5 4.08897 34.411 0 29.3626 0ZM30.1507 16.6243C29.9451 16.6414 29.7453 16.6528 29.5397 16.6528C27.2953 16.6528 25.2051 15.5221 23.9773 13.6489V23.8828C23.9773 28.0631 20.5908 31.4497 16.4104 31.4497C12.2301 31.4497 8.84355 28.0631 8.84355 23.8828C8.84355 19.7024 12.2301 16.3159 16.4104 16.3159C16.5703 16.3159 16.7245 16.3273 16.8787 16.3387V20.0679C16.7245 20.0508 16.5703 20.0222 16.4104 20.0222C14.2803 20.0222 12.5499 21.7526 12.5499 23.8828C12.5499 26.0129 14.2803 27.7433 16.4104 27.7433C18.5406 27.7433 20.4252 26.0643 20.4252 23.9285L20.4651 6.54463H24.0287C24.3656 9.74271 26.9412 12.2384 30.1507 12.4725V16.6129V16.6243Z" fill="#233976"/>
</svg>
