<svg width="21" height="21" viewBox="0 0 21 21" fill="none" xmlns="http://www.w3.org/2000/svg">
<path d="M9.69625 14.6106C9.69625 14.9421 9.82794 15.2601 10.0624 15.4945C10.2968 15.7289 10.6147 15.8606 10.9462 15.8606C11.2778 15.8606 11.5957 15.7289 11.8301 15.4945C12.0646 15.2601 12.1962 14.9421 12.1962 14.6106L12.1962 5.6631L16.25 9.71685L18.0175 7.94935L10.9462 0.878098L3.875 7.94935L5.6425 9.71685L9.69625 5.6656L9.69625 14.6118L9.69625 14.6106Z" fill="#233976"/>
<path d="M18.9463 17.8606L18.9463 13.3606L20.4463 13.3606L20.4463 17.8606C20.4463 18.391 20.2356 18.8997 19.8605 19.2748C19.4854 19.6499 18.9767 19.8606 18.4463 19.8606L3.44629 19.8606C2.91586 19.8606 2.40715 19.6499 2.03207 19.2748C1.657 18.8997 1.44629 18.391 1.44629 17.8606L1.44629 13.3606L2.94629 13.3606L2.94629 17.8606L2.94629 18.3606L3.44629 18.3606L18.4463 18.3606L18.9463 18.3606L18.9463 17.8606Z" fill="#233976" stroke="#233976"/>
</svg>
