<svg width="38" height="39" viewBox="0 0 38 39" fill="none" xmlns="http://www.w3.org/2000/svg">
<g clip-path="url(#clip0_201_2763)">
<path d="M15.8446 14.955L23.9196 19.5438L15.8446 24.1327V14.955ZM38 4.59828V34.4554C38 36.7032 36.1763 38.5269 33.9286 38.5269H4.07143C1.82366 38.5269 0 36.7032 0 34.4554V4.59828C0 2.35052 1.82366 0.526855 4.07143 0.526855H33.9286C36.1763 0.526855 38 2.35052 38 4.59828ZM34.4375 19.5523C34.4375 19.5523 34.4375 14.4969 33.7929 12.0711C33.4366 10.7309 32.3933 9.67909 31.0616 9.32284C28.6612 8.66971 19 8.66971 19 8.66971C19 8.66971 9.33884 8.66971 6.93839 9.32284C5.6067 9.67909 4.56339 10.7309 4.20714 12.0711C3.5625 14.4885 3.5625 19.5523 3.5625 19.5523C3.5625 19.5523 3.5625 24.6077 4.20714 27.0336C4.56339 28.3737 5.6067 29.3831 6.93839 29.7394C9.33884 30.384 19 30.384 19 30.384C19 30.384 28.6612 30.384 31.0616 29.7309C32.3933 29.3746 33.4366 28.3652 33.7929 27.0251C34.4375 24.6077 34.4375 19.5523 34.4375 19.5523Z" fill="white"/>
</g>
<defs>
<clipPath id="clip0_201_2763">
<rect y="0.526855" width="38" height="38" rx="4" fill="white"/>
</clipPath>
</defs>
</svg>
